<svg width="20" height="20" viewBox="0 0 20 20" fill="none" xmlns="http://www.w3.org/2000/svg">
<g clip-path="url(#clip0_1_9)">
<path d="M5.33333 0.5H18.6667C18.8877 0.5 19.0996 0.587797 19.2559 0.744078C19.4122 0.900358 19.5 1.11232 19.5 1.33333V14.6667C19.5 14.8877 19.4122 15.0996 19.2559 15.2559C19.0996 15.4122 18.8877 15.5 18.6667 15.5H5.33333C5.11232 15.5 4.90036 15.4122 4.74408 15.2559C4.5878 15.0996 4.5 14.8877 4.5 14.6667V1.33333C4.5 1.11232 4.5878 0.900358 4.74408 0.744078C4.90036 0.587797 5.11232 0.5 5.33333 0.5ZM6.16667 2.16667V13.8333H17.8333V2.16667H6.16667Z" fill="#B8B8B8"/>
</g>
<defs>
<clipPath id="clip0_1_9">
<rect width="20" height="20" fill="white"/>
</clipPath>
</defs>
</svg>
